<svg width="203" height="56" viewBox="0 -7 203 56" fill="none" xmlns="http://www.w3.org/2000/svg">
<path d="M15.1094 15.5781H20.0938V40H15.1094V15.5781ZM26.3906 15.5781H31.3438L46.5625 23.5469V15.5781H51.5156V40H46.5625V28.7969L31.3438 20.875V40H26.3906V15.5781ZM55.1562 15.5781H60.6406L68.3125 34.2031L75.9844 15.5781H81.4688L70.7656 40H65.8594L55.1562 15.5781ZM85.1406 15.5781H105.938V19.9219H90.0938V24.7969H104.125V28.875H90.0938V35.6719H106.266V40H85.1406V15.5781ZM111.766 15.5781H124.641C126.516 15.5781 128.141 15.7812 129.516 16.1875C130.891 16.5938 132.031 17.1823 132.938 17.9531C133.844 18.7135 134.516 19.6458 134.953 20.75C135.401 21.8542 135.625 23.099 135.625 24.4844C135.625 25.7865 135.406 26.9896 134.969 28.0938C134.531 29.1979 133.859 30.1562 132.953 30.9688C132.057 31.7708 130.922 32.401 129.547 32.8594C128.172 33.3073 126.547 33.5312 124.672 33.5312L116.719 33.5156V40H111.766V15.5781ZM124.766 29.2344C125.703 29.2344 126.521 29.125 127.219 28.9062C127.927 28.6771 128.516 28.3594 128.984 27.9531C129.464 27.5365 129.818 27.0365 130.047 26.4531C130.286 25.8594 130.406 25.2031 130.406 24.4844C130.406 23.0365 129.932 21.9115 128.984 21.1094C128.047 20.2969 126.641 19.8906 124.766 19.8906H116.719V29.2344H124.766ZM149.375 15.5781H154.625L166.438 40H161.234L159.281 35.8906H145.016L143.125 40H137.906L149.375 15.5781ZM157.328 31.8125L152.047 20.7188L146.906 31.8125H157.328ZM170.234 15.5781H175.188V35.6562H189.391V40H170.234V15.5781Z" fill="black"/>
</svg>
